<svg width="13" height="14" viewBox="0 0 13 14" fill="none" xmlns="http://www.w3.org/2000/svg">
<path fill-rule="evenodd" clip-rule="evenodd" d="M6.67468 13.5325H2.55495C1.96041 13.5325 1.53575 13.4037 1.28188 13.1452C1.02708 12.8866 0.900146 12.475 0.900146 11.9104V2.08795C0.900146 1.51209 1.03081 1.09675 1.29121 0.844754C1.55161 0.592754 1.97255 0.46582 2.55495 0.46582H6.92295C7.56695 0.46582 8.12508 0.504087 8.59641 0.581554C9.06868 0.65902 9.49241 0.80742 9.86575 1.02769C10.184 1.21155 10.4668 1.44489 10.7113 1.72769C11.2002 2.28593 11.4684 3.0035 11.4655 3.74555C11.4655 5.05315 10.7916 6.00982 9.44295 6.61555C11.2135 7.16249 12.1001 8.22649 12.1001 9.80849C12.1166 11.2327 11.2696 12.5253 9.95721 13.0789C9.5023 13.2564 9.02644 13.3747 8.54135 13.4308C8.00841 13.4989 7.38588 13.5334 6.67468 13.5334V13.5325ZM6.47215 7.72996H3.70015V11.5445H6.56455C8.40975 11.5445 9.33188 10.9005 9.33188 9.61062C9.33188 8.95076 9.09295 8.47196 8.61508 8.17609C8.13721 7.87836 7.42321 7.72996 6.47215 7.72996ZM3.70015 2.45382V5.83155H6.13241C6.81281 5.83155 7.33828 5.76902 7.70975 5.64489C8.07405 5.5248 8.37818 5.26914 8.55908 4.93089C8.71308 4.68169 8.78961 4.40262 8.78961 4.09369C8.78961 3.43382 8.54695 2.99609 8.06348 2.77862C7.57908 2.56209 6.84081 2.45382 5.84681 2.45382H3.70015Z" fill="black"/>
<mask id="mask0" mask-type="alpha" maskUnits="userSpaceOnUse" x="0" y="0" width="13" height="14">
<path fill-rule="evenodd" clip-rule="evenodd" d="M6.67468 13.5325H2.55495C1.96041 13.5325 1.53575 13.4037 1.28188 13.1452C1.02708 12.8866 0.900146 12.475 0.900146 11.9104V2.08795C0.900146 1.51209 1.03081 1.09675 1.29121 0.844754C1.55161 0.592754 1.97255 0.46582 2.55495 0.46582H6.92295C7.56695 0.46582 8.12508 0.504087 8.59641 0.581554C9.06868 0.65902 9.49241 0.80742 9.86575 1.02769C10.184 1.21155 10.4668 1.44489 10.7113 1.72769C11.2002 2.28593 11.4684 3.0035 11.4655 3.74555C11.4655 5.05315 10.7916 6.00982 9.44295 6.61555C11.2135 7.16249 12.1001 8.22649 12.1001 9.80849C12.1166 11.2327 11.2696 12.5253 9.95721 13.0789C9.5023 13.2564 9.02644 13.3747 8.54135 13.4308C8.00841 13.4989 7.38588 13.5334 6.67468 13.5334V13.5325ZM6.47215 7.72996H3.70015V11.5445H6.56455C8.40975 11.5445 9.33188 10.9005 9.33188 9.61062C9.33188 8.95076 9.09295 8.47196 8.61508 8.17609C8.13721 7.87836 7.42321 7.72996 6.47215 7.72996ZM3.70015 2.45382V5.83155H6.13241C6.81281 5.83155 7.33828 5.76902 7.70975 5.64489C8.07405 5.5248 8.37818 5.26914 8.55908 4.93089C8.71308 4.68169 8.78961 4.40262 8.78961 4.09369C8.78961 3.43382 8.54695 2.99609 8.06348 2.77862C7.57908 2.56209 6.84081 2.45382 5.84681 2.45382H3.70015Z" fill="white"/>
</mask>
<g mask="url(#mask0)">
<rect x="-2.83325" y="-2.3335" width="18.6667" height="18.6667" fill="#333333"/>
</g>
</svg>
