<svg width="16" height="16" viewBox="0 0 16 16" fill="none" xmlns="http://www.w3.org/2000/svg">
<path fill-rule="evenodd" clip-rule="evenodd" d="M15.4377 1.25199C15.633 1.05673 15.633 0.740147 15.4377 0.544885C15.2425 0.349622 14.9259 0.349622 14.7306 0.544883L7.99406 7.28143L1.25748 0.544883C1.06222 0.349622 0.745638 0.349622 0.550377 0.544885C0.355115 0.740147 0.355115 1.05673 0.550378 1.25199L7.28695 7.98854L0.550378 14.7251C0.355115 14.9203 0.355115 15.2369 0.550377 15.4322C0.745638 15.6274 1.06222 15.6274 1.25748 15.4322L7.99406 8.69564L14.7306 15.4322C14.9259 15.6274 15.2425 15.6274 15.4377 15.4322C15.633 15.2369 15.633 14.9203 15.4377 14.7251L8.70117 7.98854L15.4377 1.25199Z" fill="#979797"/>
</svg>
