<svg width="68" height="21" viewBox="0 0 68 21" fill="none" xmlns="http://www.w3.org/2000/svg">
<path d="M15.0089 15.4447C13.7604 15.4447 12.6884 15.0142 11.7929 14.1531C10.906 13.2921 10.4626 12.1297 10.4626 10.6659C10.4626 9.68426 10.6864 8.8232 11.1342 8.08269C11.5819 7.34219 12.1459 6.79542 12.8262 6.44238C13.5064 6.08074 14.234 5.89992 15.0089 5.89992C16.0422 5.89992 16.9119 6.16254 17.6179 6.68778C18.3326 7.20442 18.8062 7.91048 19.0387 8.80598L17.8633 9.21929C17.6911 8.53044 17.3596 8.00089 16.8688 7.63064C16.378 7.25178 15.758 7.06234 15.0089 7.06234C14.1134 7.06234 13.3471 7.38093 12.7099 8.01811C12.0727 8.64668 11.7541 9.52927 11.7541 10.6659C11.7541 11.8025 12.0727 12.6893 12.7099 13.3265C13.3471 13.9637 14.1134 14.2823 15.0089 14.2823C15.758 14.2823 16.3823 14.0842 16.8817 13.6882C17.3811 13.2835 17.7299 12.7496 17.9279 12.0866L19.0516 12.4999C18.8019 13.3868 18.3197 14.1015 17.605 14.6439C16.8989 15.1778 16.0336 15.4447 15.0089 15.4447ZM21.6894 15.251H20.4754V5.89992H21.6894V15.251ZM25.0334 13.7786C25.4123 14.166 25.873 14.3598 26.4154 14.3598C26.9579 14.3598 27.4142 14.166 27.7845 13.7786C28.1634 13.3825 28.3528 12.8357 28.3528 12.1383C28.3528 11.4494 28.1634 10.9113 27.7845 10.5238C27.4142 10.1277 26.9579 9.92966 26.4154 9.92966C25.873 9.92966 25.4123 10.1277 25.0334 10.5238C24.6632 10.9113 24.478 11.4494 24.478 12.1383C24.478 12.8357 24.6632 13.3825 25.0334 13.7786ZM24.1293 9.78758C24.7321 9.15901 25.4941 8.84473 26.4154 8.84473C27.3367 8.84473 28.0945 9.15901 28.6886 9.78758C29.2913 10.4075 29.5927 11.1911 29.5927 12.1383C29.5927 13.094 29.2956 13.8862 28.7015 14.5148C28.1074 15.1347 27.3454 15.4447 26.4154 15.4447C25.4855 15.4447 24.7234 15.1347 24.1293 14.5148C23.5352 13.8862 23.2381 13.094 23.2381 12.1383C23.2381 11.1911 23.5352 10.4075 24.1293 9.78758ZM30.5648 13.6365L31.6627 13.249C31.7057 13.5848 31.8521 13.8647 32.1018 14.0886C32.3515 14.3038 32.6873 14.4114 33.1092 14.4114C33.4364 14.4114 33.6948 14.334 33.8842 14.179C34.0736 14.0154 34.1683 13.8173 34.1683 13.5848C34.1683 13.1715 33.9014 12.9046 33.3676 12.7841L32.3085 12.5516C31.8263 12.4482 31.4474 12.2416 31.1719 11.9316C30.8963 11.6216 30.7586 11.2471 30.7586 10.8079C30.7586 10.2741 30.9738 9.81341 31.4044 9.42594C31.8435 9.03846 32.3644 8.84473 32.9672 8.84473C33.3633 8.84473 33.7163 8.905 34.0263 9.02555C34.3363 9.13749 34.5773 9.28817 34.7496 9.4776C34.9218 9.66703 35.0509 9.84355 35.137 10.0072C35.2231 10.1708 35.2877 10.3387 35.3308 10.5109L34.2588 10.9113C34.2415 10.8079 34.2114 10.7089 34.1683 10.6142C34.1253 10.5109 34.0564 10.3989 33.9617 10.2784C33.8756 10.1578 33.7464 10.0631 33.5742 9.99424C33.402 9.91674 33.1997 9.87799 32.9672 9.87799C32.6658 9.87799 32.4161 9.95979 32.2181 10.1234C32.0286 10.287 31.9339 10.4807 31.9339 10.7046C31.9339 11.1007 32.1707 11.3504 32.6443 11.4537L33.6517 11.6733C34.2028 11.7938 34.6247 12.0177 34.9175 12.3449C35.2188 12.6635 35.3695 13.0553 35.3695 13.5203C35.3695 14.0111 35.1672 14.4545 34.7625 14.8506C34.3664 15.2467 33.811 15.4447 33.0963 15.4447C32.33 15.4447 31.7316 15.2553 31.301 14.8764C30.8705 14.4889 30.6251 14.0756 30.5648 13.6365ZM37.7107 11.5054H41.1076C41.0904 11.0404 40.9354 10.6616 40.6426 10.3688C40.3498 10.0674 39.9365 9.91674 39.4027 9.91674C38.9205 9.91674 38.5244 10.076 38.2144 10.3946C37.9045 10.7046 37.7365 11.0749 37.7107 11.5054ZM41.2884 13.1199L42.3346 13.4815C42.1538 14.0584 41.8179 14.532 41.3271 14.9022C40.8363 15.2639 40.2422 15.4447 39.5448 15.4447C38.6751 15.4447 37.9346 15.1476 37.3232 14.5535C36.7205 13.9508 36.4191 13.1414 36.4191 12.1253C36.4191 11.1782 36.7119 10.3946 37.2974 9.77467C37.8829 9.15471 38.5804 8.84473 39.3898 8.84473C40.3283 8.84473 41.0602 9.14179 41.5855 9.73592C42.1107 10.3214 42.3733 11.1093 42.3733 12.0995C42.3733 12.2545 42.3647 12.3837 42.3475 12.487H37.672C37.6806 13.0381 37.8614 13.4901 38.2144 13.8432C38.5761 14.1962 39.0195 14.3727 39.5448 14.3727C40.4316 14.3727 41.0129 13.9551 41.2884 13.1199Z" fill="white"/>
<g clip-path="url(#clip0)">
<path d="M49.2869 6.19971L57.8886 14.8015L49.2869 6.19971Z" fill="white"/>
<path d="M57.8886 15.518C57.7051 15.518 57.5216 15.4477 57.3818 15.3079L48.78 6.7062C48.4998 6.42593 48.4998 5.9729 48.78 5.69263C49.0603 5.41235 49.5133 5.41235 49.7936 5.69263L58.3953 14.2944C58.6756 14.5746 58.6756 15.0277 58.3953 15.3079C58.2556 15.4477 58.0721 15.518 57.8886 15.518ZM57.8886 6.19941L49.2868 14.8012L57.8886 6.19941Z" fill="white"/>
<path d="M49.2868 15.518C49.1033 15.518 48.9198 15.4477 48.78 15.3079C48.4998 15.0277 48.4998 14.5746 48.78 14.2944L57.3818 5.69263C57.662 5.41235 58.1151 5.41235 58.3953 5.69263C58.6756 5.9729 58.6756 6.42593 58.3953 6.7062L49.7936 15.3079C49.6538 15.4477 49.4703 15.518 49.2868 15.518Z" fill="white"/>
</g>
<defs>
<clipPath id="clip0">
<rect x="48.5698" y="5.48242" width="10.0357" height="10.0356" fill="white"/>
</clipPath>
</defs>
</svg>
