<svg width="16" height="17" viewBox="0 0 16 17" fill="none" xmlns="http://www.w3.org/2000/svg">
<path d="M15.115 2.51175L13.9892 1.38594C13.1979 0.594662 11.9106 0.594662 11.1193 1.38594L0.981882 11.5219C0.914973 11.5888 0.872064 11.6754 0.858973 11.7685L0.296064 15.7103C0.276428 15.8463 0.322246 15.983 0.418973 16.0805C0.501155 16.1641 0.612428 16.2092 0.727337 16.2092C0.7477 16.2092 0.768791 16.2078 0.789155 16.2048L4.73097 15.6419C4.82406 15.6288 4.91134 15.5852 4.97752 15.519L15.115 5.38157C15.9062 4.5903 15.9062 3.30303 15.115 2.51175ZM4.46406 14.7983L1.24152 15.2587L1.70188 12.0361L9.96661 3.77212L12.7281 6.53357L4.46406 14.7983ZM14.4975 4.76412L13.3455 5.91612L10.5841 3.15466L11.7361 2.00266C12.187 1.55175 12.9208 1.55175 13.3717 2.00266L14.4975 3.12848C14.9484 3.57939 14.9484 4.31321 14.4975 4.76412Z" fill="#5B6982"/>
</svg>
