<svg width="14" height="12" viewBox="0 0 14 12" fill="none" xmlns="http://www.w3.org/2000/svg">
<path d="M7.09098 11.7222C6.9842 11.7222 6.87461 11.7079 6.75659 11.6784C6.7136 11.6666 6.68212 11.6547 6.65093 11.6415L6.61496 11.6283C6.56157 11.6101 6.50875 11.5901 6.45873 11.5634C6.39775 11.5308 0.210693 8.18918 0.210693 4.34987C0.210693 1.91557 1.904 0.0800781 4.14975 0.0800781C5.14056 0.0800781 6.27271 0.582225 7.09098 1.36088C7.90953 0.582225 9.0414 0.0800781 10.0325 0.0800781C12.278 0.0800781 13.9715 1.91585 13.9715 4.34987C13.9715 8.18918 7.78449 11.5308 7.7221 11.5643C7.67265 11.5907 7.62038 11.6104 7.56727 11.6286C7.56559 11.6292 7.53833 11.6385 7.53693 11.6393C7.5004 11.655 7.46892 11.6668 7.43605 11.6758C7.30763 11.7079 7.19804 11.7222 7.09098 11.7222ZM4.14975 0.922797C2.38479 0.922797 1.05369 2.39608 1.05369 4.34959C1.05369 7.10676 5.35103 10.0176 6.85662 10.8196C6.86393 10.823 6.87517 10.8261 6.88641 10.83L6.928 10.8443C6.94149 10.8491 6.96003 10.8567 6.97858 10.8646C7.03984 10.88 7.11205 10.8854 7.2031 10.8643C7.22586 10.855 7.24244 10.8483 7.2593 10.8424L7.29498 10.83C7.30622 10.8261 7.31803 10.823 7.32899 10.8179C8.83093 10.0174 13.1283 7.10676 13.1283 4.34931C13.1283 2.39552 11.7974 0.922516 10.0322 0.922516C9.15099 0.922516 8.07364 1.46653 7.41216 2.24546C7.33208 2.3396 7.21434 2.39411 7.0907 2.39411C6.96706 2.39411 6.8496 2.33988 6.76923 2.24546C6.10832 1.46681 5.03097 0.922797 4.14975 0.922797Z" fill="#5B6982"/>
</svg>
