<svg width="17" height="14" viewBox="0 0 17 14" fill="none" xmlns="http://www.w3.org/2000/svg">
<path fill-rule="evenodd" clip-rule="evenodd" d="M15.3479 0.466309C15.9079 0.466309 16.3652 0.904975 16.3652 1.44631V12.497C16.3652 13.0476 15.9079 13.4863 15.3479 13.4863H1.91724C1.35724 13.4863 0.899902 13.0476 0.899902 12.497V1.44631C0.899902 0.904975 1.35724 0.466309 1.92657 0.466309H15.3479ZM5.76257 7.47564C6.00524 7.26098 6.3599 7.27964 6.5839 7.50364L9.7199 10.4343L11.8012 8.51164C12.0303 8.29939 12.3842 8.29939 12.6132 8.51164L14.9652 11.2836V1.83831H2.2999V11.2836L5.76257 7.47564ZM10.4771 3.82421C10.1496 4.39064 10.1491 5.08878 10.4759 5.65564C10.9811 6.53193 12.1009 6.8328 12.9772 6.32764C13.8535 5.82248 14.1544 4.7026 13.6492 3.82631C13.3225 3.25945 12.7181 2.90998 12.0638 2.90955C11.4095 2.90912 10.8046 3.25778 10.4771 3.82421Z" fill="black"/>
<mask id="mask0" mask-type="alpha" maskUnits="userSpaceOnUse" x="0" y="0" width="17" height="14">
<path fill-rule="evenodd" clip-rule="evenodd" d="M15.3479 0.466309C15.9079 0.466309 16.3652 0.904975 16.3652 1.44631V12.497C16.3652 13.0476 15.9079 13.4863 15.3479 13.4863H1.91724C1.35724 13.4863 0.899902 13.0476 0.899902 12.497V1.44631C0.899902 0.904975 1.35724 0.466309 1.92657 0.466309H15.3479ZM5.76257 7.47564C6.00524 7.26098 6.3599 7.27964 6.5839 7.50364L9.7199 10.4343L11.8012 8.51164C12.0303 8.29939 12.3842 8.29939 12.6132 8.51164L14.9652 11.2836V1.83831H2.2999V11.2836L5.76257 7.47564ZM10.4771 3.82421C10.1496 4.39064 10.1491 5.08878 10.4759 5.65564C10.9811 6.53193 12.1009 6.8328 12.9772 6.32764C13.8535 5.82248 14.1544 4.7026 13.6492 3.82631C13.3225 3.25945 12.7181 2.90998 12.0638 2.90955C11.4095 2.90912 10.8046 3.25778 10.4771 3.82421Z" fill="white"/>
</mask>
<g mask="url(#mask0)">
<rect x="-0.5" y="-2.3335" width="18.6667" height="18.6667" fill="#333333"/>
</g>
</svg>
