<svg width="11" height="14" viewBox="0 0 11 14" fill="none" xmlns="http://www.w3.org/2000/svg">
<path fill-rule="evenodd" clip-rule="evenodd" d="M5.11366 11.3238L5.13326 11.3275C5.09966 11.6402 5.22193 11.9388 5.50006 12.2254C5.57659 12.3028 5.66153 12.3654 5.75579 12.413H7.13153C7.44081 12.413 7.69153 12.6637 7.69153 12.973C7.69153 13.2823 7.44081 13.533 7.13153 13.533H1.11713C0.807849 13.533 0.557129 13.2823 0.557129 12.973C0.557129 12.6637 0.807849 12.413 1.11713 12.413H2.19046C2.63286 12.3476 2.94553 12.2431 3.12846 12.1012C3.275 11.9874 3.40006 11.8026 3.50553 11.544L5.76046 2.63071C5.78779 2.34884 5.6922 2.06888 5.49819 1.86258C5.38487 1.73869 5.24336 1.64393 5.08566 1.58631H3.7734C3.46412 1.58631 3.2134 1.33559 3.2134 1.02631C3.2134 0.717029 3.46412 0.466309 3.7734 0.466309H9.78686C10.0961 0.466309 10.3469 0.717029 10.3469 1.02631C10.3469 1.33559 10.0961 1.58631 9.78686 1.58631H8.67153C8.32059 1.63858 8.06486 1.73098 7.90339 1.86258C7.70273 2.02591 7.50859 2.27231 7.32193 2.59991L5.11366 11.3238Z" fill="#333333"/>
<mask id="mask0" mask-type="alpha" maskUnits="userSpaceOnUse" x="0" y="0" width="11" height="14">
<path fill-rule="evenodd" clip-rule="evenodd" d="M5.11366 11.3238L5.13326 11.3275C5.09966 11.6402 5.22193 11.9388 5.50006 12.2254C5.57659 12.3028 5.66153 12.3654 5.75579 12.413H7.13153C7.44081 12.413 7.69153 12.6637 7.69153 12.973C7.69153 13.2823 7.44081 13.533 7.13153 13.533H1.11713C0.807849 13.533 0.557129 13.2823 0.557129 12.973C0.557129 12.6637 0.807849 12.413 1.11713 12.413H2.19046C2.63286 12.3476 2.94553 12.2431 3.12846 12.1012C3.275 11.9874 3.40006 11.8026 3.50553 11.544L5.76046 2.63071C5.78779 2.34884 5.6922 2.06888 5.49819 1.86258C5.38487 1.73869 5.24336 1.64393 5.08566 1.58631H3.7734C3.46412 1.58631 3.2134 1.33559 3.2134 1.02631C3.2134 0.717029 3.46412 0.466309 3.7734 0.466309H9.78686C10.0961 0.466309 10.3469 0.717029 10.3469 1.02631C10.3469 1.33559 10.0961 1.58631 9.78686 1.58631H8.67153C8.32059 1.63858 8.06486 1.73098 7.90339 1.86258C7.70273 2.02591 7.50859 2.27231 7.32193 2.59991L5.11366 11.3238Z" fill="white"/>
</mask>
<g mask="url(#mask0)">
<rect x="-3.83325" y="-2.3335" width="18.6667" height="18.6667" fill="#333333"/>
</g>
</svg>
