<svg width="14" height="16" viewBox="0 0 14 16" fill="none" xmlns="http://www.w3.org/2000/svg">
<path fill-rule="evenodd" clip-rule="evenodd" d="M7.83863 12.6667L8.76356 11.3451C8.90695 11.1402 9.14875 11.0274 9.39789 11.0491C9.64704 11.0708 9.86567 11.2238 9.97143 11.4504C10.0772 11.677 10.054 11.9429 9.91063 12.1478L8.83916 13.6785C8.78529 13.7555 8.7164 13.8209 8.63663 13.8707C6.96414 15.62 4.26521 15.8865 2.28286 14.4982C0.300521 13.1099 -0.371634 10.4824 0.700496 8.31272C0.719162 8.22405 0.756496 8.13632 0.812496 8.05698L1.88303 6.52725C2.02269 6.31323 2.26788 6.19233 2.5227 6.21184C2.77751 6.23135 3.00144 6.38817 3.10689 6.62096C3.21233 6.85375 3.18254 7.1255 3.02916 7.32992L2.10423 8.65338L2.10983 8.65618C1.14331 10.2335 1.57119 12.2907 3.08652 13.3518C4.60185 14.4129 6.68127 14.1116 7.83303 12.6639L7.83863 12.6677V12.6667ZM12.9664 7.68738C12.9466 7.7793 12.9085 7.86628 12.8544 7.94312L11.7838 9.47285C11.6442 9.68687 11.399 9.80777 11.1442 9.78826C10.8893 9.76875 10.6654 9.61193 10.56 9.37914C10.4545 9.14635 10.4843 8.8746 10.6377 8.67019L11.4404 7.52218C12.5326 5.93878 12.1424 3.77066 10.5665 2.66751C8.99068 1.56437 6.81992 1.9397 5.70596 3.50792L4.9033 4.65498C4.68165 4.97174 4.24518 5.04883 3.92843 4.82718C3.61168 4.60553 3.53458 4.16907 3.75623 3.85232L4.8277 2.32165C4.88157 2.24458 4.95046 2.17918 5.03023 2.12938C6.70271 0.380128 9.40165 0.113588 11.384 1.5019C13.3663 2.89022 14.0385 5.51767 12.9664 7.68738ZM8.70756 5.32418C8.85973 5.4307 8.96333 5.59333 8.99554 5.77626C9.02775 5.9592 8.98593 6.14743 8.8793 6.29952L5.93463 10.5042C5.79125 10.7091 5.54944 10.8219 5.3003 10.8002C5.05116 10.7785 4.83253 10.6255 4.72677 10.3989C4.621 10.1723 4.64418 9.90642 4.78756 9.70152L7.73223 5.49592C7.83875 5.34375 8.00138 5.24015 8.18431 5.20794C8.36724 5.17573 8.55548 5.21755 8.70756 5.32418Z" fill="black"/>
<mask id="mask0" mask-type="alpha" maskUnits="userSpaceOnUse" x="0" y="0" width="14" height="16">
<path fill-rule="evenodd" clip-rule="evenodd" d="M7.83863 12.6667L8.76356 11.3451C8.90695 11.1402 9.14875 11.0274 9.39789 11.0491C9.64704 11.0708 9.86567 11.2238 9.97143 11.4504C10.0772 11.677 10.054 11.9429 9.91063 12.1478L8.83916 13.6785C8.78529 13.7555 8.7164 13.8209 8.63663 13.8707C6.96414 15.62 4.26521 15.8865 2.28286 14.4982C0.300521 13.1099 -0.371634 10.4824 0.700496 8.31272C0.719162 8.22405 0.756496 8.13632 0.812496 8.05698L1.88303 6.52725C2.02269 6.31323 2.26788 6.19233 2.5227 6.21184C2.77751 6.23135 3.00144 6.38817 3.10689 6.62096C3.21233 6.85375 3.18254 7.1255 3.02916 7.32992L2.10423 8.65338L2.10983 8.65618C1.14331 10.2335 1.57119 12.2907 3.08652 13.3518C4.60185 14.4129 6.68127 14.1116 7.83303 12.6639L7.83863 12.6677V12.6667ZM12.9664 7.68738C12.9466 7.7793 12.9085 7.86628 12.8544 7.94312L11.7838 9.47285C11.6442 9.68687 11.399 9.80777 11.1442 9.78826C10.8893 9.76875 10.6654 9.61193 10.56 9.37914C10.4545 9.14635 10.4843 8.8746 10.6377 8.67019L11.4404 7.52218C12.5326 5.93878 12.1424 3.77066 10.5665 2.66751C8.99068 1.56437 6.81992 1.9397 5.70596 3.50792L4.9033 4.65498C4.68165 4.97174 4.24518 5.04883 3.92843 4.82718C3.61168 4.60553 3.53458 4.16907 3.75623 3.85232L4.8277 2.32165C4.88157 2.24458 4.95046 2.17918 5.03023 2.12938C6.70271 0.380128 9.40165 0.113588 11.384 1.5019C13.3663 2.89022 14.0385 5.51767 12.9664 7.68738ZM8.70756 5.32418C8.85973 5.4307 8.96333 5.59333 8.99554 5.77626C9.02775 5.9592 8.98593 6.14743 8.8793 6.29952L5.93463 10.5042C5.79125 10.7091 5.54944 10.8219 5.3003 10.8002C5.05116 10.7785 4.83253 10.6255 4.72677 10.3989C4.621 10.1723 4.64418 9.90642 4.78756 9.70152L7.73223 5.49592C7.83875 5.34375 8.00138 5.24015 8.18431 5.20794C8.36724 5.17573 8.55548 5.21755 8.70756 5.32418Z" fill="white"/>
</mask>
<g mask="url(#mask0)">
<rect x="-2.5" y="-1.3335" width="18.6667" height="18.6667" fill="#333333"/>
</g>
</svg>
