<svg width="18" height="15" viewBox="0 0 18 15" fill="none" xmlns="http://www.w3.org/2000/svg">
<path fill-rule="evenodd" clip-rule="evenodd" d="M6.9667 3.03319C6.9667 3.41959 7.2803 3.73319 7.6667 3.73319H16.5334C16.92 3.73319 17.2334 3.41979 17.2334 3.03319C17.2334 2.64659 16.92 2.33319 16.5334 2.33319H7.6667C7.2801 2.33319 6.9667 2.64659 6.9667 3.03319ZM3.70003 0.466523V5.13319H2.30003V1.11986H1.3667V0.186523H3.70003V0.466523ZM0.7535 14.3331L3.17083 11.2932H3.1587C3.29419 11.0578 3.24126 10.7592 3.03314 10.5847C2.82502 10.4102 2.52171 10.4102 2.31359 10.5847C2.10547 10.7592 2.05254 11.0578 2.18803 11.2932H0.715233C0.680785 10.6049 1.0284 9.95358 1.61942 9.59909C2.21044 9.2446 2.9487 9.2446 3.53971 9.59909C4.13073 9.95358 4.47835 10.6049 4.4439 11.2932H4.44297C4.39817 11.6712 4.29363 11.9783 4.13217 12.2153C3.96883 12.4524 3.5815 12.8612 2.9711 13.4399H4.4467V14.3732H0.713366L0.7535 14.3331ZM6.9667 11.4332C6.9667 11.0466 7.2801 10.7332 7.6667 10.7332H16.5334C16.92 10.7332 17.2334 11.0466 17.2334 11.4332C17.2334 11.8198 16.92 12.1332 16.5334 12.1332H7.6667C7.2801 12.1332 6.9667 11.8198 6.9667 11.4332Z" fill="black"/>
<mask id="mask0" mask-type="alpha" maskUnits="userSpaceOnUse" x="0" y="0" width="18" height="15">
<path fill-rule="evenodd" clip-rule="evenodd" d="M6.9667 3.03319C6.9667 3.41959 7.2803 3.73319 7.6667 3.73319H16.5334C16.92 3.73319 17.2334 3.41979 17.2334 3.03319C17.2334 2.64659 16.92 2.33319 16.5334 2.33319H7.6667C7.2801 2.33319 6.9667 2.64659 6.9667 3.03319ZM3.70003 0.466523V5.13319H2.30003V1.11986H1.3667V0.186523H3.70003V0.466523ZM0.7535 14.3331L3.17083 11.2932H3.1587C3.29419 11.0578 3.24126 10.7592 3.03314 10.5847C2.82502 10.4102 2.52171 10.4102 2.31359 10.5847C2.10547 10.7592 2.05254 11.0578 2.18803 11.2932H0.715233C0.680785 10.6049 1.0284 9.95358 1.61942 9.59909C2.21044 9.2446 2.9487 9.2446 3.53971 9.59909C4.13073 9.95358 4.47835 10.6049 4.4439 11.2932H4.44297C4.39817 11.6712 4.29363 11.9783 4.13217 12.2153C3.96883 12.4524 3.5815 12.8612 2.9711 13.4399H4.4467V14.3732H0.713366L0.7535 14.3331ZM6.9667 11.4332C6.9667 11.0466 7.2801 10.7332 7.6667 10.7332H16.5334C16.92 10.7332 17.2334 11.0466 17.2334 11.4332C17.2334 11.8198 16.92 12.1332 16.5334 12.1332H7.6667C7.2801 12.1332 6.9667 11.8198 6.9667 11.4332Z" fill="white"/>
</mask>
<g mask="url(#mask0)">
<rect x="-0.5" y="-2.3335" width="18.6667" height="18.6667" fill="#333333"/>
</g>
</svg>
