<svg width="17" height="13" viewBox="0 0 17 13" fill="none" xmlns="http://www.w3.org/2000/svg">
<path fill-rule="evenodd" clip-rule="evenodd" d="M6.4999 2.56644C6.4999 2.95284 6.8135 3.26644 7.1999 3.26644H16.0666C16.4532 3.26644 16.7666 2.95304 16.7666 2.56644C16.7666 2.17984 16.4532 1.86644 16.0666 1.86644H7.1999C6.8133 1.86644 6.4999 2.17984 6.4999 2.56644ZM0.899902 2.56644C0.899902 1.66484 1.6251 0.933105 2.53324 0.933105C3.43484 0.933105 4.16657 1.65831 4.16657 2.56644C4.16657 3.46804 3.44137 4.19977 2.53324 4.19977C1.63164 4.19977 0.899902 3.47457 0.899902 2.56644ZM6.4999 10.9664C6.4999 11.3528 6.8135 11.6664 7.1999 11.6664H16.0666C16.4532 11.6664 16.7666 11.353 16.7666 10.9664C16.7666 10.5798 16.4532 10.2664 16.0666 10.2664H7.1999C6.8133 10.2664 6.4999 10.5798 6.4999 10.9664ZM0.899902 10.9664C0.899902 10.0648 1.6251 9.33311 2.53324 9.33311C3.43484 9.33311 4.16657 10.0583 4.16657 10.9664C4.16657 11.868 3.44137 12.5998 2.53324 12.5998C1.63164 12.5998 0.899902 11.8746 0.899902 10.9664Z" fill="black"/>
<mask id="mask0" mask-type="alpha" maskUnits="userSpaceOnUse" x="0" y="0" width="17" height="13">
<path fill-rule="evenodd" clip-rule="evenodd" d="M6.4999 2.56644C6.4999 2.95284 6.8135 3.26644 7.1999 3.26644H16.0666C16.4532 3.26644 16.7666 2.95304 16.7666 2.56644C16.7666 2.17984 16.4532 1.86644 16.0666 1.86644H7.1999C6.8133 1.86644 6.4999 2.17984 6.4999 2.56644ZM0.899902 2.56644C0.899902 1.66484 1.6251 0.933105 2.53324 0.933105C3.43484 0.933105 4.16657 1.65831 4.16657 2.56644C4.16657 3.46804 3.44137 4.19977 2.53324 4.19977C1.63164 4.19977 0.899902 3.47457 0.899902 2.56644ZM6.4999 10.9664C6.4999 11.3528 6.8135 11.6664 7.1999 11.6664H16.0666C16.4532 11.6664 16.7666 11.353 16.7666 10.9664C16.7666 10.5798 16.4532 10.2664 16.0666 10.2664H7.1999C6.8133 10.2664 6.4999 10.5798 6.4999 10.9664ZM0.899902 10.9664C0.899902 10.0648 1.6251 9.33311 2.53324 9.33311C3.43484 9.33311 4.16657 10.0583 4.16657 10.9664C4.16657 11.868 3.44137 12.5998 2.53324 12.5998C1.63164 12.5998 0.899902 11.8746 0.899902 10.9664Z" fill="white"/>
</mask>
<g mask="url(#mask0)">
<rect x="-0.5" y="-2.3335" width="18.6667" height="18.6667" fill="#333333"/>
</g>
</svg>
