<svg width="17" height="17" viewBox="0 0 17 17" fill="none" xmlns="http://www.w3.org/2000/svg">
<path fill-rule="evenodd" clip-rule="evenodd" d="M1.27835 14.6402L1.49675 14.3154C1.21955 14.1744 1.06555 14.0419 1.03195 13.9178C0.998352 13.7899 1.03382 13.5295 1.13929 13.1366C1.22702 12.9032 1.27929 12.7175 1.29702 12.5812C1.31524 12.356 1.31524 12.1298 1.29702 11.9046C1.10195 11.325 1.01422 10.933 1.03195 10.7286C1.05062 10.5251 1.19809 10.2563 1.47529 9.92404L7.79395 1.13764C8.29702 0.288304 9.29195 0.344304 10.7797 1.30564C12.2674 2.26884 12.8218 3.1051 12.4448 3.81257L6.95955 13.4819C6.81209 13.8664 6.64875 14.11 6.46862 14.2118C6.28849 14.3126 5.90489 14.3788 5.31875 14.4078C4.98089 14.53 4.75129 14.629 4.62995 14.7046C4.50862 14.7802 4.34529 14.9267 4.13902 15.1432C3.86555 15.3906 3.66862 15.5138 3.54915 15.5138C3.45955 15.5138 3.29715 15.4438 3.06009 15.3028L2.77075 15.6855L1.27742 14.6402H1.27835ZM1.01795 15.0275L2.48795 16.057L2.12208 16.5376H0.00341797L1.01795 15.0275ZM7.84342 14.895L6.58715 16.295H6.58808H16.6223V14.895H7.84342Z" fill="black"/>
<mask id="mask0" mask-type="alpha" maskUnits="userSpaceOnUse" x="0" y="0" width="17" height="17">
<path fill-rule="evenodd" clip-rule="evenodd" d="M1.27835 14.6402L1.49675 14.3154C1.21955 14.1744 1.06555 14.0419 1.03195 13.9178C0.998352 13.7899 1.03382 13.5295 1.13929 13.1366C1.22702 12.9032 1.27929 12.7175 1.29702 12.5812C1.31524 12.356 1.31524 12.1298 1.29702 11.9046C1.10195 11.325 1.01422 10.933 1.03195 10.7286C1.05062 10.5251 1.19809 10.2563 1.47529 9.92404L7.79395 1.13764C8.29702 0.288304 9.29195 0.344304 10.7797 1.30564C12.2674 2.26884 12.8218 3.1051 12.4448 3.81257L6.95955 13.4819C6.81209 13.8664 6.64875 14.11 6.46862 14.2118C6.28849 14.3126 5.90489 14.3788 5.31875 14.4078C4.98089 14.53 4.75129 14.629 4.62995 14.7046C4.50862 14.7802 4.34529 14.9267 4.13902 15.1432C3.86555 15.3906 3.66862 15.5138 3.54915 15.5138C3.45955 15.5138 3.29715 15.4438 3.06009 15.3028L2.77075 15.6855L1.27742 14.6402H1.27835ZM1.01795 15.0275L2.48795 16.057L2.12208 16.5376H0.00341797L1.01795 15.0275ZM7.84342 14.895L6.58715 16.295H6.58808H16.6223V14.895H7.84342Z" fill="white"/>
</mask>
<g mask="url(#mask0)">
<rect x="-0.833252" y="-0.333496" width="18.6667" height="18.6667" fill="#333333"/>
</g>
<path d="M3.95508 8.72193L7.05934 10.7603L11.0232 3.69126C11.1865 3.45793 10.8477 3.08739 10.004 2.57873C9.16121 2.06913 8.68614 1.97019 8.57788 2.28006L3.95508 8.72193Z" fill="#F8E71C"/>
<mask id="mask1" mask-type="alpha" maskUnits="userSpaceOnUse" x="3" y="2" width="9" height="9">
<path d="M3.95508 8.72193L7.05934 10.7603L11.0232 3.69126C11.1865 3.45793 10.8477 3.08739 10.004 2.57873C9.16121 2.06913 8.68614 1.97019 8.57788 2.28006L3.95508 8.72193Z" fill="white"/>
</mask>
<g mask="url(#mask1)">
<rect x="-0.833252" y="-0.333496" width="18.6667" height="18.6667" fill="#F8E71C"/>
</g>
</svg>
