<svg width="18" height="14" viewBox="0 0 18 14" fill="none" xmlns="http://www.w3.org/2000/svg">
<path fill-rule="evenodd" clip-rule="evenodd" d="M17.5133 0.494254C17.7467 0.49365 17.8647 0.493344 17.9244 0.552204C17.9854 0.612411 17.9854 0.734523 17.9853 0.981542L17.9853 1.00772V12.9917L17.9853 13.0184C17.9854 13.2711 17.9854 13.3954 17.9233 13.4564C17.8632 13.5154 17.7449 13.5151 17.5121 13.5145L17.4347 13.5144H1.204L1.12658 13.5145C0.893776 13.5151 0.775458 13.5154 0.715343 13.4564C0.653218 13.3954 0.653254 13.2711 0.653325 13.0184L0.65333 12.9917V1.00772L0.653325 0.981947C0.653256 0.736027 0.653221 0.613802 0.714314 0.553211C0.77468 0.49334 0.894728 0.493646 1.1334 0.494254L1.21333 0.494387H17.4347L17.5133 0.494254ZM14.7187 11.6664V2.33305H3.92V11.6664H14.7187ZM1.86667 2.79972V1.86639H2.8V2.79972H1.86667ZM1.86667 3.73305V4.66639H2.8V3.73305H1.86667ZM1.86667 6.53305V5.59972H2.8V6.53305H1.86667ZM1.86667 7.46639V8.39972H2.8V7.46639H1.86667ZM1.86667 10.2664V9.33305H2.8V10.2664H1.86667ZM1.86667 11.1997V12.1331H2.8V11.1997H1.86667ZM16.8 2.79972H15.8667V1.86639H16.8V2.79972ZM15.8667 3.73305V4.66639H16.8V3.73305H15.8667ZM15.8667 6.53305V5.59972H16.8V6.53305H15.8667ZM15.8667 7.46639V8.39972H16.8V7.46639H15.8667ZM15.8667 10.2664V9.33305H16.8V10.2664H15.8667ZM15.8667 11.1997V12.1331H16.8V11.1997H15.8667ZM7.18317 4.04305C7.06945 4.11036 6.99979 4.23277 7 4.36492V9.63545C7.00012 9.76743 7.06991 9.88954 7.18357 9.95663C7.29723 10.0237 7.43786 10.0258 7.55346 9.96212L12.3443 7.32639C12.4631 7.26064 12.5369 7.13553 12.5369 6.99972C12.5369 6.8639 12.4631 6.7388 12.3443 6.67305L7.55346 4.03732C7.43772 3.97356 7.29689 3.97574 7.18317 4.04305Z" fill="black"/>
<mask id="mask0" mask-type="alpha" maskUnits="userSpaceOnUse" x="0" y="0" width="18" height="14">
<path fill-rule="evenodd" clip-rule="evenodd" d="M17.5133 0.494254C17.7467 0.49365 17.8647 0.493344 17.9244 0.552204C17.9854 0.612411 17.9854 0.734523 17.9853 0.981542L17.9853 1.00772V12.9917L17.9853 13.0184C17.9854 13.2711 17.9854 13.3954 17.9233 13.4564C17.8632 13.5154 17.7449 13.5151 17.5121 13.5145L17.4347 13.5144H1.204L1.12658 13.5145C0.893776 13.5151 0.775458 13.5154 0.715343 13.4564C0.653218 13.3954 0.653254 13.2711 0.653325 13.0184L0.65333 12.9917V1.00772L0.653325 0.981947C0.653256 0.736027 0.653221 0.613802 0.714314 0.553211C0.77468 0.49334 0.894728 0.493646 1.1334 0.494254L1.21333 0.494387H17.4347L17.5133 0.494254ZM14.7187 11.6664V2.33305H3.92V11.6664H14.7187ZM1.86667 2.79972V1.86639H2.8V2.79972H1.86667ZM1.86667 3.73305V4.66639H2.8V3.73305H1.86667ZM1.86667 6.53305V5.59972H2.8V6.53305H1.86667ZM1.86667 7.46639V8.39972H2.8V7.46639H1.86667ZM1.86667 10.2664V9.33305H2.8V10.2664H1.86667ZM1.86667 11.1997V12.1331H2.8V11.1997H1.86667ZM16.8 2.79972H15.8667V1.86639H16.8V2.79972ZM15.8667 3.73305V4.66639H16.8V3.73305H15.8667ZM15.8667 6.53305V5.59972H16.8V6.53305H15.8667ZM15.8667 7.46639V8.39972H16.8V7.46639H15.8667ZM15.8667 10.2664V9.33305H16.8V10.2664H15.8667ZM15.8667 11.1997V12.1331H16.8V11.1997H15.8667ZM7.18317 4.04305C7.06945 4.11036 6.99979 4.23277 7 4.36492V9.63545C7.00012 9.76743 7.06991 9.88954 7.18357 9.95663C7.29723 10.0237 7.43786 10.0258 7.55346 9.96212L12.3443 7.32639C12.4631 7.26064 12.5369 7.13553 12.5369 6.99972C12.5369 6.8639 12.4631 6.7388 12.3443 6.67305L7.55346 4.03732C7.43772 3.97356 7.29689 3.97574 7.18317 4.04305Z" fill="white"/>
</mask>
<g mask="url(#mask0)">
<rect y="-2.3335" width="18.6667" height="18.6667" fill="#333333"/>
</g>
</svg>
