<svg width="17" height="20" viewBox="0 0 17 20" fill="none" xmlns="http://www.w3.org/2000/svg">
<g clip-path="url(#clip0)">
<path d="M14.55 14.55V8.62222C14.5561 7.28507 14.1437 5.97951 13.3706 4.88848C12.5975 3.79745 11.5025 2.97563 10.2389 2.53817V2.15556C10.2389 1.58387 10.0118 1.03559 9.60754 0.631347C9.2033 0.227102 8.65502 0 8.08333 0C7.51164 0 6.96337 0.227102 6.55913 0.631347C6.15488 1.03559 5.92778 1.58387 5.92778 2.15556V2.53278C4.66817 2.97811 3.57742 3.80265 2.80545 4.89306C2.03348 5.98347 1.61819 7.28621 1.61667 8.62222V14.55C1.1879 14.55 0.776694 14.7203 0.47351 15.0235C0.170327 15.3267 0 15.7379 0 16.1667C0 16.5954 0.170327 17.0066 0.47351 17.3098C0.776694 17.613 1.1879 17.7833 1.61667 17.7833H6.00322C6.12732 18.24 6.39823 18.6431 6.77415 18.9305C7.15008 19.2179 7.61013 19.3736 8.08333 19.3736C8.55653 19.3736 9.01659 19.2179 9.39251 18.9305C9.76844 18.6431 10.0393 18.24 10.1634 17.7833H14.55C14.9788 17.7833 15.39 17.613 15.6932 17.3098C15.9963 17.0066 16.1667 16.5954 16.1667 16.1667C16.1667 15.7379 15.9963 15.3267 15.6932 15.0235C15.39 14.7203 14.9788 14.55 14.55 14.55ZM7.00556 2.15556C7.00556 1.86971 7.11911 1.59557 7.32123 1.39345C7.52335 1.19133 7.79749 1.07778 8.08333 1.07778C8.36918 1.07778 8.64331 1.19133 8.84544 1.39345C9.04756 1.59557 9.16111 1.86971 9.16111 2.15556V2.24717C9.12703 2.24457 9.0928 2.24457 9.05872 2.24717L8.81622 2.22022L8.56294 2.15556C8.47681 2.15017 8.39042 2.15017 8.30428 2.15556H8.08333H7.87856C7.78702 2.15018 7.69525 2.15018 7.60372 2.15556H7.36122L7.10256 2.18789H7.00556V2.15556ZM8.08333 18.3222C7.89433 18.322 7.7087 18.2721 7.54507 18.1775C7.38144 18.083 7.24556 17.947 7.15106 17.7833H9.01561C8.92111 17.947 8.78523 18.083 8.6216 18.1775C8.45796 18.2721 8.27234 18.322 8.08333 18.3222ZM14.9218 16.5493C14.8741 16.5997 14.8163 16.6396 14.7523 16.6665C14.6883 16.6934 14.6194 16.7067 14.55 16.7056H1.61667C1.47374 16.7056 1.33668 16.6488 1.23561 16.5477C1.13455 16.4467 1.07778 16.3096 1.07778 16.1667C1.07877 16.095 1.09406 16.0242 1.12275 15.9585C1.15143 15.8928 1.19294 15.8335 1.24483 15.7841C1.29261 15.7337 1.35033 15.6938 1.41433 15.6669C1.47834 15.64 1.54724 15.6266 1.61667 15.6278H2.15556C2.29848 15.6278 2.43555 15.571 2.53661 15.4699C2.63767 15.3689 2.69444 15.2318 2.69444 15.0889V8.62222C2.69467 7.85139 2.86026 7.08957 3.18005 6.3882C3.49983 5.68683 3.96636 5.06222 4.54814 4.55654C5.12993 4.05086 5.81343 3.67588 6.55251 3.45691C7.29158 3.23794 8.06904 3.18008 8.83239 3.28722C9.07636 3.32034 9.31768 3.37077 9.5545 3.43811C10.6827 3.75826 11.6756 4.43767 12.3826 5.37325C13.0897 6.30884 13.4722 7.44952 13.4722 8.62222V15.0889C13.4722 15.2318 13.529 15.3689 13.6301 15.4699C13.7311 15.571 13.8682 15.6278 14.0111 15.6278H14.55C14.6929 15.6278 14.83 15.6845 14.9311 15.7856C15.0321 15.8867 15.0889 16.0237 15.0889 16.1667C15.0879 16.2383 15.0726 16.3091 15.0439 16.3748C15.0152 16.4405 14.9737 16.4998 14.9218 16.5493Z" fill="black"/>
</g>
<defs>
<clipPath id="clip0">
<rect width="16.1667" height="19.4" fill="white"/>
</clipPath>
</defs>
</svg>
