<svg width="3" height="16" viewBox="0 0 3 16" fill="none" xmlns="http://www.w3.org/2000/svg">
<path d="M1.84235 3.12003C2.43326 3.12003 2.94569 2.62607 2.95031 2.01207C2.94569 1.40732 2.43326 0.913352 1.84235 0.913352C1.23298 0.913352 0.729783 1.40732 0.7344 2.01207C0.729783 2.62607 1.23298 3.12003 1.84235 3.12003ZM1.84235 9.12003C2.43326 9.12003 2.94569 8.62607 2.95031 8.01207C2.94569 7.40732 2.43326 6.91335 1.84235 6.91335C1.23298 6.91335 0.729783 7.40732 0.7344 8.01207C0.729783 8.62607 1.23298 9.12003 1.84235 9.12003ZM1.84235 15.12C2.43326 15.12 2.94569 14.6261 2.95031 14.0121C2.94569 13.4073 2.43326 12.9134 1.84235 12.9134C1.23298 12.9134 0.729783 13.4073 0.7344 14.0121C0.729783 14.6261 1.23298 15.12 1.84235 15.12Z" fill="black"/>
</svg>
