<svg width="15" height="12" viewBox="0 0 15 12" fill="none" xmlns="http://www.w3.org/2000/svg">
<path fill-rule="evenodd" clip-rule="evenodd" d="M0.909423 6.49838C0.94681 3.33634 3.4068 0.733364 6.56169 0.517578L6.59716 1.14291C4.12756 1.83171 3.10649 3.92238 2.98142 6.10358H6.50942C7.02462 6.10358 6.97609 6.50678 6.97609 7.02384V11.2341C6.97609 11.7512 6.55796 11.7036 6.04276 11.7036H1.37609C0.86089 11.7036 0.909423 11.2845 0.909423 10.7674V7.02384V6.49838ZM8.37609 6.49838C8.41348 3.33634 10.8735 0.733364 14.0284 0.517578L14.0638 1.14291C11.5942 1.83264 10.5732 3.92331 10.449 6.10358H13.9761C14.4913 6.10358 14.4428 6.50678 14.4428 7.02384V11.2341C14.4428 11.7512 14.0246 11.7036 13.5094 11.7036H8.84276C8.32756 11.7036 8.37609 11.2845 8.37609 10.7674V7.02384V6.49838Z" fill="black"/>
<mask id="mask0" mask-type="alpha" maskUnits="userSpaceOnUse" x="0" y="0" width="15" height="12">
<path fill-rule="evenodd" clip-rule="evenodd" d="M0.909423 6.49838C0.94681 3.33634 3.4068 0.733364 6.56169 0.517578L6.59716 1.14291C4.12756 1.83171 3.10649 3.92238 2.98142 6.10358H6.50942C7.02462 6.10358 6.97609 6.50678 6.97609 7.02384V11.2341C6.97609 11.7512 6.55796 11.7036 6.04276 11.7036H1.37609C0.86089 11.7036 0.909423 11.2845 0.909423 10.7674V7.02384V6.49838ZM8.37609 6.49838C8.41348 3.33634 10.8735 0.733364 14.0284 0.517578L14.0638 1.14291C11.5942 1.83264 10.5732 3.92331 10.449 6.10358H13.9761C14.4913 6.10358 14.4428 6.50678 14.4428 7.02384V11.2341C14.4428 11.7512 14.0246 11.7036 13.5094 11.7036H8.84276C8.32756 11.7036 8.37609 11.2845 8.37609 10.7674V7.02384V6.49838Z" fill="white"/>
</mask>
<g mask="url(#mask0)">
<rect x="-1.5" y="-3.3335" width="18.6667" height="18.6667" fill="#333333"/>
</g>
</svg>
