<svg width="14" height="12" viewBox="0 0 14 12" fill="none" xmlns="http://www.w3.org/2000/svg">
<path d="M6.85871 11.6465C6.8529 11.6467 6.84725 11.6467 6.84144 11.6465C6.77544 11.6465 6.70867 11.6268 6.65061 11.5855C6.46742 11.4555 2.14302 8.37117 0.549736 5.76932C0.547597 5.76581 0.54561 5.76229 0.543471 5.75878C0.187931 5.16901 0 4.49185 0 3.79956C0 1.70452 1.70452 0 3.79956 0C5.01256 0 6.13892 0.576321 6.85 1.53355C7.56108 0.576321 8.6876 0 9.90044 0C11.9955 0 13.7 1.70452 13.7 3.79956C13.7 4.49185 13.5121 5.16901 13.1565 5.75878C13.1545 5.76229 13.1526 5.76581 13.1503 5.76932C11.5571 8.37117 7.23274 11.4555 7.04939 11.5855C6.99164 11.6268 6.92487 11.6465 6.85871 11.6465Z" fill="#EA4444"/>
</svg>
