<svg width="17" height="15" viewBox="0 0 17 15" fill="none" xmlns="http://www.w3.org/2000/svg">
<path d="M9.56146 0.0156253H7.92946C6.57866 0.0152382 5.25642 0.404504 4.1213 1.13674C2.98618 1.86898 2.08637 2.91311 1.52977 4.14391C0.973181 5.37471 0.783431 6.73994 0.98328 8.07588C1.18313 9.41181 1.76409 10.6617 2.6565 11.6758L1.38994 13.2883C1.33428 13.3591 1.29967 13.4441 1.29005 13.5336C1.28043 13.6232 1.2962 13.7136 1.33556 13.7946C1.37491 13.8757 1.43626 13.944 1.51259 13.9917C1.58892 14.0395 1.67716 14.0649 1.76722 14.0649H9.56146C11.4079 14.04 13.1703 13.289 14.4672 11.9744C15.7641 10.6599 16.4913 8.88753 16.4913 7.04091C16.4913 5.19428 15.7641 3.42192 14.4672 2.10737C13.1703 0.792827 11.4079 0.0418317 9.56146 0.0169052V0.0156253ZM13.8495 11.3283C13.2877 11.8932 12.6194 12.341 11.8834 12.646C11.1474 12.951 10.3582 13.1069 9.56146 13.1049H2.75474L3.66578 11.9452C3.73813 11.8531 3.77429 11.7377 3.76745 11.6208C3.76061 11.5038 3.71125 11.3934 3.62866 11.3103C2.78456 10.4608 2.21096 9.38038 1.98021 8.20525C1.74946 7.03013 1.8719 5.81299 2.33208 4.70737C2.79226 3.60175 3.56958 2.65718 4.56597 1.99282C5.56235 1.32846 6.73318 0.974064 7.93074 0.974345H9.56274C10.7624 0.974177 11.9352 1.32985 12.9326 1.99636C13.9301 2.66287 14.7075 3.61026 15.1664 4.71868C15.6253 5.8271 15.7451 7.04674 15.5107 8.22327C15.2763 9.39981 14.6982 10.4804 13.8495 11.3283ZM5.88146 4.48283C5.88146 4.35552 5.93203 4.23343 6.02205 4.14341C6.11207 4.0534 6.23416 4.00283 6.36146 4.00283H11.132C11.2593 4.00283 11.3814 4.0534 11.4714 4.14341C11.5615 4.23343 11.612 4.35552 11.612 4.48283C11.612 4.61013 11.5615 4.73222 11.4714 4.82224C11.3814 4.91225 11.2593 4.96283 11.132 4.96283H6.36018C6.23288 4.96283 6.11079 4.91225 6.02077 4.82224C5.93075 4.73222 5.88018 4.61013 5.88018 4.48283H5.88146ZM12.677 7.04027C12.677 7.16757 12.6264 7.28966 12.5364 7.37968C12.4464 7.4697 12.3243 7.52027 12.197 7.52027H5.29522C5.16792 7.52027 5.04583 7.4697 4.95581 7.37968C4.86579 7.28966 4.81522 7.16757 4.81522 7.04027C4.81522 6.91296 4.86579 6.79087 4.95581 6.70085C5.04583 6.61084 5.16792 6.56027 5.29522 6.56027H12.197C12.3243 6.56027 12.4464 6.61084 12.5364 6.70085C12.6264 6.79087 12.677 6.91296 12.677 7.04027ZM11.612 9.59771C11.612 9.72501 11.5615 9.8471 11.4714 9.93712C11.3814 10.0271 11.2593 10.0777 11.132 10.0777H6.36018C6.23288 10.0777 6.11079 10.0271 6.02077 9.93712C5.93075 9.8471 5.88018 9.72501 5.88018 9.59771C5.88018 9.4704 5.93075 9.34831 6.02077 9.2583C6.11079 9.16828 6.23288 9.11771 6.36018 9.11771H11.132C11.2593 9.11771 11.3814 9.16828 11.4714 9.2583C11.5615 9.34831 11.612 9.4704 11.612 9.59771Z" fill="#5B6982"/>
</svg>
