<svg width="17" height="17" viewBox="0 0 17 17" fill="none" xmlns="http://www.w3.org/2000/svg">
<path fill-rule="evenodd" clip-rule="evenodd" d="M12.5043 11.0831C12.4347 11.0135 12.1038 11.3544 12.0343 11.2848C11.9471 11.1977 12.0343 10.6128 12.0343 10.6128C12.8686 9.47488 13.3156 8.09911 13.3093 6.68807C13.2934 3.00479 10.3143 0.0213414 6.63104 6.76607e-05C4.8684 -0.00790729 3.17577 0.689398 1.93024 1.93664C0.684702 3.18389 -0.0102793 4.87747 0.000114938 6.64011C0.0160346 10.3237 2.99542 13.3074 6.67901 13.3287C8.0958 13.3349 9.47659 12.8827 10.6153 12.0397L10.6202 12.036C10.6202 12.036 11.1575 11.9524 11.2411 12.036C11.3037 12.0987 10.999 12.415 11.0666 12.4827C12.5827 13.9996 15.2705 16.6888 15.2705 16.6888C15.5219 16.9526 15.8966 17.0594 16.2493 16.9677C16.602 16.8761 16.8773 16.6006 16.9686 16.2478C17.0599 15.895 16.9528 15.5204 16.6889 15.2692C16.6889 15.2692 13.8991 12.4784 12.5043 11.0831ZM6.67418 11.9949C3.72747 11.9779 1.344 9.59122 1.33106 6.64449C1.32311 5.23456 1.87914 3.87997 2.87538 2.88225C3.87162 1.88452 5.22539 1.32648 6.63532 1.33234C9.58203 1.34929 11.9655 3.73601 11.9784 6.68274C11.9864 8.09266 11.4304 9.44726 10.4341 10.445C9.43788 11.4427 8.08411 12.0007 6.67418 11.9949Z" fill="black"/>
</svg>
