<svg width="13" height="14" viewBox="0 0 13 14" fill="none" xmlns="http://www.w3.org/2000/svg">
<path d="M10.5646 0C9.3375 0 8.33313 1.00435 8.33313 2.23148C8.33313 2.48208 8.37457 2.72438 8.45167 2.94974L4.63026 5.43226C4.22102 4.97826 3.63303 4.68611 2.97758 4.68611C1.75046 4.68611 0.746094 5.69045 0.746094 6.91759C0.746094 8.14473 1.75046 9.14907 2.97758 9.14907C3.63573 9.14907 4.22783 8.86016 4.63724 8.40291L8.45167 10.8854C8.37323 11.1125 8.33313 11.3509 8.33313 11.6037C8.33313 12.8308 9.3375 13.8352 10.5646 13.8352C11.7917 13.8352 12.7961 12.8308 12.7961 11.6037C12.7961 10.3766 11.7917 9.37222 10.5646 9.37222C9.90916 9.37222 9.32116 9.66436 8.91193 10.1184L5.09052 7.63584C5.16762 7.41048 5.20906 7.16819 5.20906 6.91759C5.20906 6.66474 5.16896 6.42642 5.09052 6.19932L8.90495 3.71681C9.31436 4.17407 9.90646 4.46296 10.5646 4.46296C11.7917 4.46296 12.7961 3.45861 12.7961 2.23148C12.7961 1.00435 11.7917 0 10.5646 0Z" fill="#5B6982"/>
</svg>
