<svg width="15" height="14" viewBox="0 0 15 14" fill="none" xmlns="http://www.w3.org/2000/svg">
<path fill-rule="evenodd" clip-rule="evenodd" d="M2.6468 11.5731C3.30013 12.1331 3.95346 12.5998 4.70013 12.9731C5.35346 13.2531 6.10013 13.5331 7.03346 13.5331C7.81092 13.5041 8.5738 13.3133 9.27346 12.9731C9.74013 12.7864 10.2068 12.5998 10.7668 11.8531L11.3268 10.7331V9.98644C11.3268 9.51977 11.2335 9.05311 10.9535 8.39977H8.99346C8.99346 8.39977 10.0201 9.23977 9.83346 10.3598C9.83346 10.4531 9.83346 11.1998 9.27346 11.5731C8.8068 11.8531 8.06013 12.1331 7.1268 12.1331C5.63346 12.1331 4.6068 11.6664 3.67346 10.5464H2.74013L2.46013 11.1064C2.44513 11.2828 2.51434 11.4558 2.6468 11.5731ZM3.7668 5.41311L4.51346 6.06644L0.966797 6.06644V7.46644H14.0335V6.06644H7.04204C6.54262 5.84477 6.16302 5.61059 5.7268 5.31977C5.62966 5.25039 5.53665 5.1872 5.44869 5.12743C4.94501 4.78522 4.6068 4.55543 4.6068 3.91977C4.6068 3.26644 4.79346 3.07977 5.54013 2.51977C6.10013 2.14644 6.75346 1.95977 7.4068 1.95977C8.34013 2.05311 8.90013 2.14644 9.27346 2.33311C9.72266 2.53986 10.1091 2.86189 10.3935 3.26644C10.4868 3.35977 10.9535 3.45311 11.3268 3.26644C11.6278 3.04068 11.5648 2.81492 11.5291 2.687C11.5205 2.65627 11.5135 2.63119 11.5135 2.61311L11.2335 1.95977C10.7908 1.5211 10.2453 1.20024 9.6468 1.02644C8.23932 0.460588 6.66761 0.460588 5.26013 1.02644C4.70013 1.30644 4.14013 1.67977 3.7668 2.23977C3.39346 2.70644 3.30013 3.26644 3.30013 3.91977C3.30013 4.66644 3.39346 4.94644 3.7668 5.41311Z" fill="black"/>
<mask id="mask0" mask-type="alpha" maskUnits="userSpaceOnUse" x="0" y="0" width="15" height="14">
<path fill-rule="evenodd" clip-rule="evenodd" d="M2.6468 11.5731C3.30013 12.1331 3.95346 12.5998 4.70013 12.9731C5.35346 13.2531 6.10013 13.5331 7.03346 13.5331C7.81092 13.5041 8.5738 13.3133 9.27346 12.9731C9.74013 12.7864 10.2068 12.5998 10.7668 11.8531L11.3268 10.7331V9.98644C11.3268 9.51977 11.2335 9.05311 10.9535 8.39977H8.99346C8.99346 8.39977 10.0201 9.23977 9.83346 10.3598C9.83346 10.4531 9.83346 11.1998 9.27346 11.5731C8.8068 11.8531 8.06013 12.1331 7.1268 12.1331C5.63346 12.1331 4.6068 11.6664 3.67346 10.5464H2.74013L2.46013 11.1064C2.44513 11.2828 2.51434 11.4558 2.6468 11.5731ZM3.7668 5.41311L4.51346 6.06644L0.966797 6.06644V7.46644H14.0335V6.06644H7.04204C6.54262 5.84477 6.16302 5.61059 5.7268 5.31977C5.62966 5.25039 5.53665 5.1872 5.44869 5.12743C4.94501 4.78522 4.6068 4.55543 4.6068 3.91977C4.6068 3.26644 4.79346 3.07977 5.54013 2.51977C6.10013 2.14644 6.75346 1.95977 7.4068 1.95977C8.34013 2.05311 8.90013 2.14644 9.27346 2.33311C9.72266 2.53986 10.1091 2.86189 10.3935 3.26644C10.4868 3.35977 10.9535 3.45311 11.3268 3.26644C11.6278 3.04068 11.5648 2.81492 11.5291 2.687C11.5205 2.65627 11.5135 2.63119 11.5135 2.61311L11.2335 1.95977C10.7908 1.5211 10.2453 1.20024 9.6468 1.02644C8.23932 0.460588 6.66761 0.460588 5.26013 1.02644C4.70013 1.30644 4.14013 1.67977 3.7668 2.23977C3.39346 2.70644 3.30013 3.26644 3.30013 3.91977C3.30013 4.66644 3.39346 4.94644 3.7668 5.41311Z" fill="white"/>
</mask>
<g mask="url(#mask0)">
<rect x="-1.83325" y="-2.3335" width="18.6667" height="18.6667" fill="#333333"/>
</g>
</svg>
