<svg width="17" height="16" viewBox="0 0 17 16" fill="none" xmlns="http://www.w3.org/2000/svg">
<path fill-rule="evenodd" clip-rule="evenodd" d="M2.02036 3.6319V6.4319H5.75369V3.6319H2.02036ZM2.02036 7.36523V10.1652H5.75369V7.36523H2.02036ZM2.02036 11.0986V13.8986H5.75369V11.0986H2.02036ZM6.68703 13.8986H10.4204V11.0986H6.68703V13.8986ZM11.3537 13.8986H15.087V11.0986H11.3537V13.8986ZM15.087 10.1652V7.36523H11.3537V10.1652H15.087ZM15.087 6.4319V3.6319H11.3537V6.4319H15.087ZM16.487 13.8986C16.487 14.6718 15.8602 15.2986 15.087 15.2986H2.02036C1.24716 15.2986 0.620361 14.6718 0.620361 13.8986V1.76523C0.827561 0.959768 1.61716 0.365234 2.48703 0.365234H14.6204C15.4902 0.365234 16.2798 0.959768 16.487 1.76523V13.8986ZM10.4204 10.1652V7.36523H6.68703V10.1652H10.4204ZM10.4204 6.4319V3.6319H6.68703V6.4319H10.4204Z" fill="black"/>
<mask id="mask0" mask-type="alpha" maskUnits="userSpaceOnUse" x="0" y="0" width="17" height="16">
<path fill-rule="evenodd" clip-rule="evenodd" d="M2.02036 3.6319V6.4319H5.75369V3.6319H2.02036ZM2.02036 7.36523V10.1652H5.75369V7.36523H2.02036ZM2.02036 11.0986V13.8986H5.75369V11.0986H2.02036ZM6.68703 13.8986H10.4204V11.0986H6.68703V13.8986ZM11.3537 13.8986H15.087V11.0986H11.3537V13.8986ZM15.087 10.1652V7.36523H11.3537V10.1652H15.087ZM15.087 6.4319V3.6319H11.3537V6.4319H15.087ZM16.487 13.8986C16.487 14.6718 15.8602 15.2986 15.087 15.2986H2.02036C1.24716 15.2986 0.620361 14.6718 0.620361 13.8986V1.76523C0.827561 0.959768 1.61716 0.365234 2.48703 0.365234H14.6204C15.4902 0.365234 16.2798 0.959768 16.487 1.76523V13.8986ZM10.4204 10.1652V7.36523H6.68703V10.1652H10.4204ZM10.4204 6.4319V3.6319H6.68703V6.4319H10.4204Z" fill="white"/>
</mask>
<g mask="url(#mask0)">
<rect x="-0.5" y="-1.3335" width="18.6667" height="18.6667" fill="#333333"/>
</g>
</svg>
