<svg width="12" height="12" viewBox="0 0 12 12" fill="none" xmlns="http://www.w3.org/2000/svg">
<path fill-rule="evenodd" clip-rule="evenodd" d="M7.41961 2.83832H11.1294C11.6094 2.83832 12 3.23912 12 3.73176V11.1066C12 11.5992 11.6095 12 11.1294 12H0.870594C0.390542 12 0 11.5992 0 11.1066V3.73176C0 3.23912 0.390542 2.83832 0.870594 2.83832H4.58041L3.26312 0.620097C3.14889 0.427783 3.20823 0.176882 3.39562 0.059656C3.58301 -0.057516 3.82751 0.0033808 3.94171 0.195641L5.51106 2.83832H6.48897L8.05831 0.195641C8.17251 0.00332644 8.41704 -0.0575976 8.6044 0.059656C8.79179 0.176855 8.85113 0.427783 8.73691 0.620097L7.41961 2.83832ZM7.94202 10.5204C8.2034 10.5204 8.41527 10.3029 8.41527 10.0347V4.80363C8.41527 4.53541 8.20337 4.31795 7.94202 4.31795H1.8858C1.62442 4.31795 1.41255 4.53541 1.41255 4.80363V10.0347C1.41255 10.3029 1.62442 10.5204 1.88577 10.5204H7.94202ZM10.1667 9.87951C9.71386 9.87951 9.34546 9.50144 9.34546 9.03675C9.34546 8.57203 9.71386 8.19398 10.1667 8.19398C10.6194 8.19398 10.9878 8.57203 10.9878 9.03675C10.9878 9.50146 10.6194 9.87951 10.1667 9.87951ZM9.34546 5.8016C9.34546 6.26632 9.71386 6.64437 10.1667 6.64437C10.6194 6.64437 10.9878 6.26632 10.9878 5.8016C10.9878 5.33688 10.6194 4.95883 10.1667 4.95883C9.71386 4.95883 9.34546 5.33688 9.34546 5.8016Z" fill="#EA4444"/>
</svg>
