<svg width="13" height="14" viewBox="0 0 13 14" fill="none" xmlns="http://www.w3.org/2000/svg">
<path fill-rule="evenodd" clip-rule="evenodd" d="M2.34979 0.988975V6.56409C2.34979 9.0032 4.17913 10.0485 6.44402 10.0485C8.79602 10.0485 10.7125 8.91609 10.7125 6.56409V0.988975C10.7125 0.727642 10.364 0.55342 10.1027 0.55342C9.75424 0.55342 9.40579 0.727642 9.40579 0.988975V6.30275C9.40579 8.04497 8.09913 8.82897 6.44402 8.82897C4.7889 8.82897 3.65646 8.13209 3.65646 6.38986V0.988975C3.65646 0.640531 3.30802 0.466309 3.04668 0.466309C2.69824 0.466309 2.34979 0.640531 2.34979 0.988975ZM0.43335 12.2263V13.533H12.6289V12.2263H0.43335Z" fill="black"/>
<mask id="mask0" mask-type="alpha" maskUnits="userSpaceOnUse" x="0" y="0" width="13" height="14">
<path fill-rule="evenodd" clip-rule="evenodd" d="M2.34979 0.988975V6.56409C2.34979 9.0032 4.17913 10.0485 6.44402 10.0485C8.79602 10.0485 10.7125 8.91609 10.7125 6.56409V0.988975C10.7125 0.727642 10.364 0.55342 10.1027 0.55342C9.75424 0.55342 9.40579 0.727642 9.40579 0.988975V6.30275C9.40579 8.04497 8.09913 8.82897 6.44402 8.82897C4.7889 8.82897 3.65646 8.13209 3.65646 6.38986V0.988975C3.65646 0.640531 3.30802 0.466309 3.04668 0.466309C2.69824 0.466309 2.34979 0.640531 2.34979 0.988975ZM0.43335 12.2263V13.533H12.6289V12.2263H0.43335Z" fill="white"/>
</mask>
<g mask="url(#mask0)">
<rect x="-2.83325" y="-2.3335" width="18.6667" height="18.6667" fill="#333333"/>
</g>
</svg>
