<svg width="16" height="17" viewBox="0 0 16 17" fill="none" xmlns="http://www.w3.org/2000/svg">
<path d="M15.1149 2.51175L13.9891 1.38594C13.1978 0.594662 11.9105 0.594662 11.1192 1.38594L0.981791 11.5219C0.914881 11.5888 0.871972 11.6754 0.858882 11.7685L0.295972 15.7103C0.276336 15.8463 0.322154 15.983 0.418882 16.0805C0.501063 16.1641 0.612336 16.2092 0.727245 16.2092C0.747609 16.2092 0.7687 16.2078 0.789063 16.2048L4.73088 15.6419C4.82397 15.6288 4.91124 15.5852 4.97743 15.519L15.1149 5.38157C15.9062 4.5903 15.9062 3.30303 15.1149 2.51175ZM4.46397 14.7983L1.24143 15.2587L1.70179 12.0361L9.96652 3.77212L12.728 6.53357L4.46397 14.7983ZM14.4974 4.76412L13.3454 5.91612L10.584 3.15466L11.736 2.00266C12.1869 1.55175 12.9207 1.55175 13.3716 2.00266L14.4974 3.12848C14.9483 3.57939 14.9483 4.31321 14.4974 4.76412Z" fill="white"/>
</svg>
